<svg height="512pt" viewBox="0 0 512 512" width="512pt" xmlns="http://www.w3.org/2000/svg"><path d="m512 256c0 141.386719-114.613281 256-256 256s-256-114.613281-256-256 114.613281-256 256-256 256 114.613281 256 256zm0 0" fill="#bd6018"/><path d="m292.894531 509.34375c97.789063-14.117188 177.691407-83.496094 207.027344-175.46875l-77.875-77.875-.648437 2.175781-102.496094-102.496093-272.601563 107.066406zm0 0" fill="#7f4233"/><path d="m70.4375 274.054688c-20.761719 0-35.921875-19.476563-31.003906-39.648438 17.789062-72.960938 83.582031-127.117188 162.023437-127.117188 78.441407 0 144.230469 54.15625 162.023438 127.117188 4.917969 20.171875-10.242188 39.648438-31.003907 39.648438zm0 0" fill="#ffdf57"/><path d="m363.480469 234.40625c-17.789063-72.960938-83.582031-127.121094-162.023438-127.121094-.167969 0-.335937.007813-.503906.007813v166.757812h131.523437c20.761719.003907 35.921876-19.472656 31.003907-39.644531zm0 0" fill="#efc820"/><g fill="#ffa300"><path d="m240.804688 164.472656h-12.214844v-16.953125c0-14.726562 11.9375-26.664062 26.667968-26.664062h12.210938v16.953125c0 14.726562-11.9375 26.664062-26.664062 26.664062zm0 0"/><path d="m279.679688 188.105469h-12.210938v-16.953125c0-14.726563 11.9375-26.667969 26.664062-26.667969h12.214844v16.953125c0 14.726562-11.941406 26.667969-26.667968 26.667969zm0 0"/><path d="m333.140625 274.054688h-12.214844v-16.953126c0-14.730468 11.9375-26.667968 26.667969-26.667968h12.210938v16.953125c0 14.726562-11.9375 26.667969-26.664063 26.667969zm0 0"/><path d="m313.699219 225.574219h-12.210938v-16.953125c0-14.726563 11.9375-26.667969 26.664063-26.667969h12.214844v16.953125c0 14.730469-11.941407 26.667969-26.667969 26.667969zm0 0"/><path d="m162.109375 164.472656h12.214844v-16.953125c0-14.726562-11.941407-26.664062-26.667969-26.664062h-12.210938v16.953125c0 14.726562 11.9375 26.664062 26.664063 26.664062zm0 0"/><path d="m123.230469 188.105469h12.214843v-16.953125c0-14.726563-11.941406-26.667969-26.667968-26.667969h-12.210938v16.953125c0 14.726562 11.9375 26.667969 26.664063 26.667969zm0 0"/><path d="m69.773438 274.054688h12.214843v-16.953126c0-14.730468-11.941406-26.667968-26.667969-26.667968h-12.210937v16.953125c0 14.726562 11.9375 26.667969 26.664063 26.667969zm0 0"/><path d="m89.214844 225.574219h12.210937v-16.953125c0-14.726563-11.9375-26.667969-26.664062-26.667969h-12.214844v16.953125c0 14.730469 11.9375 26.667969 26.667969 26.667969zm0 0"/><path d="m201.457031 167.144531-9.671875-9.664062c-11.316406-11.3125-11.320312-29.660157-.007812-40.976563l9.679687-9.6875 9.667969 9.664063c11.316406 11.3125 11.324219 29.660156.011719 40.976562zm0 0"/><path d="m211.125 116.480469-9.667969-9.664063-.503906.503906v59.320313l.503906.503906 9.679688-9.6875c11.3125-11.316406 11.304687-29.664062-.011719-40.976562zm0 0"/></g><path d="m78.046875 274.054688c-6.792969 0-12.132813-5.839844-11.511719-12.605469 6.359375-68.925781 64.335938-122.894531 134.921875-122.894531 70.582031 0 128.558594 53.96875 134.917969 122.894531.625 6.765625-4.714844 12.605469-11.511719 12.605469zm0 0" fill="#fcaf03"/><path d="m336.375 261.449219c-6.355469-68.925781-64.335938-122.894531-134.917969-122.894531-.167969 0-.335937.003906-.503906.007812v135.492188h123.910156c6.796875 0 12.136719-5.839844 11.511719-12.605469zm0 0" fill="#fd8724"/><path d="m170.46875 371.210938c-20.761719 0-35.921875-19.476563-31.003906-39.644532 17.789062-72.964844 83.582031-127.121094 162.023437-127.121094 78.441407 0 144.230469 54.15625 162.023438 127.121094 4.917969 20.167969-10.242188 39.644532-31.003907 39.644532zm0 0" fill="#ffdf57"/><path d="m463.511719 331.566406c-17.785157-72.945312-83.550781-127.09375-161.964844-127.121094v166.765626h130.960937c20.761719 0 35.921876-19.476563 31.003907-39.644532zm0 0" fill="#efc820"/><path d="m340.835938 261.632812h-12.214844v-16.953124c0-14.730469 11.9375-26.667969 26.664062-26.667969h12.214844v16.953125c0 14.726562-11.9375 26.667968-26.664062 26.667968zm0 0" fill="#ffa300"/><path d="m379.710938 285.265625h-12.210938v-16.953125c0-14.726562 11.9375-26.667969 26.664062-26.667969h12.214844v16.953125c0 14.726563-11.941406 26.667969-26.667968 26.667969zm0 0" fill="#ffa300"/><path d="m433.171875 371.210938h-12.214844v-16.953126c0-14.726562 11.9375-26.664062 26.664063-26.664062h12.214844v16.953125c0 14.726563-11.9375 26.664063-26.664063 26.664063zm0 0" fill="#ffa300"/><path d="m413.730469 322.730469h-12.210938v-16.949219c0-14.726562 11.9375-26.667969 26.664063-26.667969h12.214844v16.953125c0 14.726563-11.941407 26.664063-26.667969 26.664063zm0 0" fill="#ffa300"/><path d="m262.140625 261.632812h12.214844v-16.953124c0-14.730469-11.941407-26.667969-26.667969-26.667969h-12.210938v16.953125c0 14.726562 11.9375 26.667968 26.664063 26.667968zm0 0" fill="#ffa300"/><path d="m223.261719 285.265625h12.214843v-16.953125c0-14.726562-11.941406-26.667969-26.667968-26.667969h-12.210938v16.953125c0 14.726563 11.9375 26.667969 26.664063 26.667969zm0 0" fill="#ffa300"/><path d="m169.804688 371.210938h12.214843v-16.953126c0-14.726562-11.941406-26.664062-26.667969-26.664062h-12.210937v16.953125c0 14.726563 11.9375 26.664063 26.664063 26.664063zm0 0" fill="#ffa300"/><path d="m189.242188 322.730469h12.214843v-16.949219c0-14.726562-11.9375-26.667969-26.667969-26.667969h-12.210937v16.953125c0 14.726563 11.9375 26.664063 26.664063 26.664063zm0 0" fill="#ffa300"/><path d="m301.488281 264.304688-9.671875-9.664063c-11.316406-11.316406-11.320312-29.660156-.007812-40.980469l9.679687-9.683594 9.667969 9.664063c11.316406 11.3125 11.324219 29.65625.011719 40.976563zm0 0" fill="#ffa300"/><path d="m311.15625 213.640625-9.609375-9.605469v60.207032l9.621094-9.625c11.3125-11.320313 11.304687-29.664063-.011719-40.976563zm0 0" fill="#ffa300"/><path d="m178.078125 371.210938c-6.792969 0-12.132813-5.839844-11.511719-12.605469 6.359375-68.921875 64.335938-122.890625 134.921875-122.890625 70.582031 0 128.558594 53.96875 134.917969 122.890625.625 6.765625-4.714844 12.605469-11.511719 12.605469zm0 0" fill="#fcaf03"/><path d="m436.40625 358.605469c-6.355469-68.902344-64.304688-122.859375-134.859375-122.890625v135.496094h123.347656c6.796875 0 12.136719-5.839844 11.511719-12.605469zm0 0" fill="#fd8724"/></svg>