<svg id="Capa_1" enable-background="new 0 0 512 512" height="512" viewBox="0 0 512 512" width="512" xmlns="http://www.w3.org/2000/svg"><path d="m511.996 257.402c-.367 68.366-27.537 130.39-71.526 176.108-.01-.01-.01-.01-.01-.01l-.005.002c-117.856 50.156-251.054 50.157-368.911.004l-.014-.006c-44.29-46.03-71.53-108.58-71.53-177.5 0-142.526 116.486-257.857 259.444-255.977 141.018 1.854 253.309 116.351 252.552 257.379z" fill="#22d7ff"/><path d="m512 256c0 68.91-27.24 131.48-71.54 177.5-117.859 50.157-251.061 50.157-368.92 0-44.3-46.02-71.54-108.59-71.54-177.5 0-46.22 12.25-89.57 33.68-127 44.12 77.07 127.16 129 222.32 129s178.21-51.93 222.32-129c21.43 37.43 33.68 80.78 33.68 127z" fill="#00b3fe"/><path d="m488.12 364.09c-11.95 25.63-28.03 48.95-47.37 69.11-.1.1-.19.2-.29.3-58.93 25.08-121.7 37.62-184.46 37.62s-125.53-12.54-184.46-37.62c-.1-.1-.19-.2-.29-.3-19.34-20.16-35.42-43.48-47.37-69.11z" fill="#545d7a"/><path d="m488.12 364.09c-11.95 25.63-28.03 48.95-47.37 69.11-.1.1-.19.2-.29.3-58.69 24.98-121.19 37.52-183.69 37.61v-107.02z" fill="#474f6f"/><path d="m440.46 433.5c-46.57 48.39-112 78.5-184.46 78.5s-137.89-30.11-184.46-78.5z" fill="#d1f6ff"/><path d="m440.46 433.5c-46.57 48.39-112 78.5-184.46 78.5v-78.5z" fill="#8fc8f5"/><circle cx="341.776" cy="347.304" fill="#16325b" r="16.786"/><circle cx="341.776" cy="347.088" fill="#374c81" r="6.882"/><path d="m341.776 351.458c-1.119 0-2.237-.427-3.09-1.28l-27.574-27.574c-1.707-1.707-1.707-4.474 0-6.181s4.474-1.707 6.181 0l27.574 27.574c1.707 1.707 1.707 4.474 0 6.181-.854.853-1.972 1.28-3.091 1.28z" fill="#374c81"/><circle cx="103.956" cy="350.139" fill="#234177" r="13.951"/><path d="m109.284 355.339h-5.328c-2.872 0-5.2-2.328-5.2-5.2s2.328-5.2 5.2-5.2h5.328c1.888 0 3.423-1.536 3.423-3.423v-27.359c0-2.872 2.328-5.2 5.2-5.2s5.2 2.328 5.2 5.2v27.359c.001 7.622-6.201 13.823-13.823 13.823z" fill="#374c81"/><path d="m511.92 249.3-8.71 22.1c-3.43 8.69-10.1 15.74-18.65 19.5-50.47 22.17-106.25 34.48-164.91 34.48h-204.66c-20.8 0-41.56-1.74-62.06-5.21-9.14-1.55-18.22-3.44-27.23-5.67-4.26-1.06-6.56-4.72-6.56-8.4 0-2.98 1.49-5.96 4.63-7.6 12.37-6.48 26.39-13.74 29.16-14.93 5.95-2.52 11.79-5.26 17.53-8.21 7.6-3.9 16.87-8.53 26.23-12.91 16.29-7.64 32.88-14.53 41.51-15.55 15.94-1.88 32.15-2.85 48.59-2.85h263.33l44.44-57.41c1.68-2.17 4.07-3.64 6.72-4.17 6.36 21.25 10.04 43.66 10.64 66.83z" fill="#fefefe"/><path d="m511.92 249.3-8.71 22.1c-3.43 8.69-10.1 15.74-18.65 19.5-50.47 22.17-106.25 34.48-164.91 34.48h-42.26v-81.33h172.73l44.44-57.41c1.68-2.17 4.07-3.64 6.72-4.17 6.36 21.25 10.04 43.66 10.64 66.83z" fill="#d1f6ff"/><path d="m464.039 316.956c-22.313 5.53-46.739 8.594-72.35 8.594h-161.686c-6.299 0-11.391-5.103-11.391-11.391 0-3.149 1.27-6 3.342-8.06 2.05-2.06 4.9-3.331 8.05-3.331h161.686c25.611 0 50.038 3.043 72.35 8.594 2.882.715 2.882 4.868-.001 5.594z" fill="#d1f6ff"/><path d="m464.039 316.956c-22.313 5.53-46.739 8.594-72.35 8.594h-114.296v-22.782h114.296c25.611 0 50.038 3.043 72.35 8.594 2.883.715 2.883 4.868 0 5.594z" fill="#8fc8f5"/><path d="m110.8 264.729-11.953 15.785c-1.459 1.926-3.735 3.058-6.151 3.058h-39.763c5.944-2.515 11.791-5.264 17.531-8.207 7.605-3.904 16.871-8.528 26.233-12.918h12.969c1.175 0 1.843 1.345 1.134 2.282z" fill="#374c81"/><path d="m127.369 263.821-5.05 18.335c-.23.837-.991 1.416-1.859 1.416h-14.572c-1.593 0-2.499-1.822-1.537-3.093l12.09-15.965c.986-1.302 2.525-2.067 4.158-2.067h5.724c.716 0 1.236.683 1.046 1.374z" fill="#374c81"/><path d="m151.222 265.956v14.141c0 1.919-1.556 3.474-3.474 3.474h-16.648c-1.858 0-3.206-1.769-2.713-3.561l4.444-16.136c.232-.843.999-1.427 1.874-1.427h13.008c1.938 0 3.509 1.571 3.509 3.509z" fill="#374c81"/><path d="m52.933 283.572v36.596c-9.14-1.544-18.221-3.438-27.234-5.662-4.264-1.059-6.556-4.72-6.556-8.411 0-2.972 1.486-5.954 4.623-7.595 12.374-6.478 26.388-13.743 29.167-14.928z" fill="#d1f6ff"/><path d="m224.388 285.626h-5.513c-3.194 0-5.783-2.589-5.783-5.783v-11.027c0-3.194 2.589-5.783 5.783-5.783h5.513c3.194 0 5.783 2.589 5.783 5.783v11.027c0 3.194-2.589 5.783-5.783 5.783z" fill="#374c81"/><path d="m252.424 285.626h-5.513c-3.194 0-5.783-2.589-5.783-5.783v-11.027c0-3.194 2.589-5.783 5.783-5.783h5.513c3.194 0 5.783 2.589 5.783 5.783v11.027c0 3.194-2.589 5.783-5.783 5.783z" fill="#374c81"/><path d="m285.933 268.819v11.028c0 3.192-2.594 5.776-5.786 5.776h-5.509c-3.192 0-5.786-2.584-5.786-5.776v-11.028c0-3.192 2.594-5.786 5.786-5.786h5.509c3.192-.001 5.786 2.593 5.786 5.786z" fill="#374c81"/><g fill="#234177"><path d="m285.933 268.819v11.028c0 3.192-2.594 5.776-5.786 5.776h-2.754v-22.59h2.754c3.192-.001 5.786 2.593 5.786 5.786z"/><path d="m308.496 285.626h-5.513c-3.194 0-5.783-2.589-5.783-5.783v-11.027c0-3.194 2.589-5.783 5.783-5.783h5.513c3.194 0 5.783 2.589 5.783 5.783v11.027c0 3.194-2.589 5.783-5.783 5.783z"/><path d="m336.478 285.626h-5.513c-3.194 0-5.783-2.589-5.783-5.783v-11.027c0-3.194 2.589-5.783 5.783-5.783h5.513c3.194 0 5.783 2.589 5.783 5.783v11.027c0 3.194-2.589 5.783-5.783 5.783z"/><path d="m364.461 285.626h-5.513c-3.194 0-5.783-2.589-5.783-5.783v-11.027c0-3.194 2.589-5.783 5.783-5.783h5.513c3.194 0 5.783 2.589 5.783 5.783v11.027c0 3.194-2.59 5.783-5.783 5.783z"/></g><path d="m466.039 241.616c3.906 1.389 7.717 3.065 11.403 5.03l9.044 4.815c2.602 1.383 3.906 3.946 3.906 6.509s-1.304 5.126-3.906 6.509l-9.044 4.815c-3.686 1.965-7.497 3.641-11.403 5.035z" fill="#4e689b"/><path d="m466.039 241.616c3.906 1.389 7.717 3.065 11.403 5.03l9.044 4.815c2.602 1.383 3.906 3.946 3.906 6.509h-24.353z" fill="#374c81"/><path d="m473.04 241.82v32.31c0 3.17-2.07 5.99-5.12 6.91-14 4.22-28.78 5.66-43.47 4.13l-17.35-1.81-10.96-13.65-9.43-11.74 20.39-25.39 17.35-1.81c14.69-1.53 29.47-.09 43.48 4.14 3.04.93 5.11 3.74 5.11 6.91z" fill="#4e689b"/><path d="m473.04 241.82v23.97c0 1.54-2.07 2.91-5.12 3.35-14 2.05-28.78 2.75-43.47 2.01l-17.35-.88-10.96-.56-9.43-11.74 20.39-25.39 17.35-1.81c14.69-1.53 29.47-.09 43.48 4.14 3.04.93 5.11 3.74 5.11 6.91z" fill="#374c81"/><path d="m473.04 241.82v16.15h-86.33l20.39-25.39 17.35-1.81c14.69-1.53 29.47-.09 43.48 4.14 3.04.93 5.11 3.74 5.11 6.91z" fill="#234177"/><path d="m386.714 257.97v15.163c0 4.607 3.483 8.468 8.061 8.942l12.323 1.287v-25.392z" fill="#fefefe"/><path d="m386.714 257.97v7.344c0 2.23 3.483 4.104 8.061 4.33l12.323.627v-12.301z" fill="#d1f6ff"/><path d="m407.098 232.578v25.392h-20.385v-15.163c0-4.601 3.483-8.462 8.061-8.942z" fill="#8fc8f5"/><path d="m193.903 305.94h-13.757c-4.495 0-8.139-3.644-8.139-8.139v-27.214c0-4.495 3.644-8.139 8.139-8.139h13.757c4.495 0 8.139 3.644 8.139 8.139v27.213c0 4.496-3.644 8.14-8.139 8.14z" fill="#d1f6ff"/><path d="m167.462 158.009c0-.067.005-.132.005-.199 0-12.17-9.866-22.036-22.037-22.036-2.891 0-5.65.563-8.18 1.575-4.887-8.754-14.237-14.678-24.975-14.678-13.944 0-25.55 9.986-28.073 23.196-.752-.108-1.52-.167-2.302-.167-7.582 0-13.934 5.248-15.631 12.309z" fill="#fff"/><path d="m145.961 158.009c0-.038.003-.076.003-.114 0-6.998-5.673-12.671-12.671-12.671-1.663 0-3.249.323-4.703.906-2.81-5.034-8.186-8.44-14.361-8.44-8.018 0-14.692 5.742-16.143 13.338-.432-.062-.874-.096-1.323-.096-4.36 0-8.012 3.018-8.988 7.078h58.186z" fill="#d0f6ff"/><path d="m305.49 69.087c0-.067.005-.132.005-.199 0-12.17-9.866-22.036-22.037-22.036-2.891 0-5.65.563-8.18 1.575-4.887-8.754-14.237-14.678-24.975-14.678-13.944 0-25.55 9.986-28.073 23.196-.752-.108-1.52-.167-2.302-.167-7.582 0-13.934 5.248-15.631 12.309z" fill="#fff"/><path d="m283.989 69.087c0-.038.003-.076.003-.114 0-6.998-5.673-12.671-12.671-12.671-1.663 0-3.249.323-4.703.906-2.81-5.034-8.186-8.44-14.361-8.44-8.018 0-14.692 5.742-16.143 13.338-.432-.062-.874-.096-1.323-.096-4.36 0-8.012 3.018-8.988 7.078h58.186z" fill="#d0f6ff"/><path d="m447.941 122.09c0-.067.005-.132.005-.199 0-12.17-9.866-22.036-22.037-22.036-2.891 0-5.65.563-8.18 1.575-4.887-8.754-14.237-14.678-24.975-14.678-13.944 0-25.55 9.986-28.073 23.196-.752-.108-1.52-.167-2.302-.167-7.582 0-13.934 5.248-15.631 12.309z" fill="#fff"/><path d="m426.44 122.09c0-.038.003-.076.003-.114 0-6.998-5.673-12.671-12.671-12.671-1.663 0-3.249.323-4.703.906-2.81-5.034-8.186-8.44-14.361-8.44-8.018 0-14.692 5.742-16.143 13.338-.432-.062-.874-.096-1.323-.096-4.36 0-8.012 3.018-8.988 7.078h58.186z" fill="#d0f6ff"/></svg>